HIERARCHY
ROOT Pelvis
{
	OFFSET 0.000000 0.000000 0.000000
	CHANNELS 6 Xposition Yposition Zposition Xrotation Yrotation Zrotation
	JOINT LeftUpLeg_virtual
	{
		OFFSET 0.000000 0.000000 0.000000
		CHANNELS 3 Xrotation Yrotation Zrotation
		JOINT LeftUpLeg
		{
			OFFSET 18.735201 -5.666702 -4.541200
			CHANNELS 3 Xrotation Yrotation Zrotation
			JOINT LeftLeg
			{
				OFFSET -0.021200 -31.938179 0.493100
				CHANNELS 3 Xrotation Yrotation Zrotation
				JOINT LeftFoot
				{
					OFFSET 0.021200 -31.938179 -4.336299
					CHANNELS 3 Xrotation Yrotation Zrotation
					JOINT LeftToeBase
					{
						OFFSET 0.943001 -26.722000 15.023500
						CHANNELS 3 Xrotation Yrotation Zrotation
						End Site
						{
							OFFSET 0 0 0
						}
					}
				}
			}
		}
	}
	JOINT RightUpLeg_virtual
	{
		OFFSET 0.000000 0.000000 0.000000
		CHANNELS 3 Xrotation Yrotation Zrotation
		JOINT RightUpLeg
		{
			OFFSET -18.735201 -5.666702 -4.541200
			CHANNELS 3 Xrotation Yrotation Zrotation
			JOINT RightLeg
			{
				OFFSET 0.018946 -31.938133 0.493100
				CHANNELS 3 Xrotation Yrotation Zrotation
				JOINT RightFoot
				{
					OFFSET -0.018946 -31.938126 -4.336299
					CHANNELS 3 Xrotation Yrotation Zrotation
					JOINT RightToeBase
					{
						OFFSET -0.943001 -26.722004 15.023500
						CHANNELS 3 Xrotation Yrotation Zrotation
						End Site
						{
							OFFSET 0 0 0
						}
					}
				}
			}
		}
	}
	JOINT Hips_virtual
	{
		OFFSET 0.000000 0.000000 0.000000
		CHANNELS 3 Xrotation Yrotation Zrotation
		JOINT Hips
		{
			OFFSET -0.000000 -0.000000 -0.000000
			CHANNELS 3 Xrotation Yrotation Zrotation
			JOINT Spine
			{
				OFFSET 0.000000 10.199997 -0.299500
				CHANNELS 3 Xrotation Yrotation Zrotation
				JOINT Spine1
				{
					OFFSET 0.000000 11.900002 -1.516600
					CHANNELS 3 Xrotation Yrotation Zrotation
					JOINT Spine2
					{
						OFFSET 0.000000 13.600006 -2.842500
						CHANNELS 3 Xrotation Yrotation Zrotation
						JOINT Neck_virtual
						{
							OFFSET 0.000000 0.000000 0.000000
							CHANNELS 3 Xrotation Yrotation Zrotation
							JOINT Neck
							{
								OFFSET 0.000000 9.624100 -2.890100
								CHANNELS 3 Xrotation Yrotation Zrotation
								JOINT Head
								{
									OFFSET 0.000000 14.068802 -1.351900
									CHANNELS 3 Xrotation Yrotation Zrotation
									End Site
									{
										OFFSET 0 0 0
									}
								}
							}
						}
						JOINT LeftShoulder_virtual
						{
							OFFSET 0.000000 0.000000 0.000000
							CHANNELS 3 Xrotation Yrotation Zrotation
							JOINT LeftShoulder
							{
								OFFSET 15.263000 10.923401 -0.547700
								CHANNELS 3 Xrotation Yrotation Zrotation
								JOINT LeftArm
								{
									OFFSET 25.438599 -2.830597 -13.032500
									CHANNELS 3 Xrotation Yrotation Zrotation
									JOINT LeftForeArm
									{
										OFFSET 29.960503 0.000000 0.000000
										CHANNELS 3 Xrotation Yrotation Zrotation
										JOINT LeftHand
										{
											OFFSET 27.849251 0.000000 0.000000
											CHANNELS 3 Xrotation Yrotation Zrotation
											End Site
											{
												OFFSET 0 0 0
											}
										}
									}
								}
							}
						}
						JOINT RightShoulder_virtual
						{
							OFFSET 0.000000 0.000000 0.000000
							CHANNELS 3 Xrotation Yrotation Zrotation
							JOINT RightShoulder
							{
								OFFSET -15.263000 10.923401 -0.547700
								CHANNELS 3 Xrotation Yrotation Zrotation
								JOINT RightArm
								{
									OFFSET -25.438599 -2.830597 -13.032500
									CHANNELS 3 Xrotation Yrotation Zrotation
									JOINT RightForeArm
									{
										OFFSET -29.960503 0.000000 0.000000
										CHANNELS 3 Xrotation Yrotation Zrotation
										JOINT RightHand
										{
											OFFSET -27.849251 0.000000 0.000000
											CHANNELS 3 Xrotation Yrotation Zrotation
											End Site
											{
												OFFSET 0 0 0
											}
										}
									}
								}
							}
						}
					}
				}
			}
		}
	}
}
MOTION
Frames: 12
Frame Time: 0.03333333
0.986522 14.882915 181.546509 0.000000 0.000000 0.000000 -81.402994 -0.472085 -0.006553 -61.501981 -56.501562 28.547033 111.120170 -16.540707 -13.959645 2.205625 1.720913 -6.093006 0.000000 0.000000 0.000000 -82.818537 0.096589 1.104415 -61.131976 19.380216 -27.587896 101.300906 14.287619 -5.839187 -1.377531 14.416060 21.534570 0.000000 0.000000 0.000000 -82.523602 -0.055765 0.944506 -0.946771 -0.107999 -0.156343 11.955479 -0.272408 7.584578 -6.769636 0.512755 0.069030 0.000000 0.000000 0.000000 -8.965467 -0.081038 0.016029 5.910367 3.412726 -0.758316 0.000000 0.000000 0.000000 -10.283114 -0.405547 1.628637 2.103663 -9.605422 -14.124033 72.920192 -31.813539 -17.208966 -4.162312 -38.150083 -10.799986 0.000000 0.000000 0.000000 -4.811365 0.514381 -0.458301 1.345678 17.944732 9.566029 78.339866 21.477380 31.905504 -23.069422 26.825022 7.174281 0.000000 0.000000 0.000000 
1.542630 15.072300 181.633362 0.000000 0.000000 0.000000 -80.917190 -0.791145 -0.238780 -61.917195 -56.735718 27.848433 110.991230 -16.395203 -14.637478 2.245926 1.882739 -5.772943 0.000000 0.000000 0.000000 -82.395693 -0.130755 0.964518 -60.861111 18.043422 -28.413409 99.858452 14.198440 -6.221651 -1.465177 13.262173 20.769456 0.000000 0.000000 0.000000 -82.356556 -0.176616 0.760045 -0.950397 -0.111791 -0.140305 12.536818 -0.372163 7.187340 -6.947588 0.426171 0.119704 0.000000 0.000000 0.000000 -9.268291 -0.320042 0.176063 6.479468 2.975233 -0.890157 0.000000 0.000000 0.000000 -10.823731 -0.596483 1.893218 2.911034 -9.439584 -14.683290 71.961350 -31.142719 -17.634719 -3.636263 -39.035716 -10.604226 0.000000 0.000000 0.000000 -4.982159 0.162493 -0.440963 0.886909 18.040517 10.677973 78.127576 21.551919 31.623824 -22.565400 25.410819 4.927285 0.000000 0.000000 0.000000 
2.175284 15.214260 181.853378 0.000000 0.000000 0.000000 -80.412944 -1.147022 -0.428556 -62.443891 -56.649210 27.524517 110.974892 -16.467829 -15.369056 2.454148 1.834218 -6.228558 0.000000 0.000000 0.000000 -81.968349 -0.391774 0.797439 -60.292498 16.387646 -29.512435 97.784574 14.391970 -6.444750 -1.743903 12.309882 20.593235 0.000000 0.000000 0.000000 -82.119699 -0.334944 0.601219 -0.953861 -0.107023 -0.118506 13.025118 -0.567395 6.935446 -7.140132 0.417359 0.121896 0.000000 0.000000 0.000000 -9.515125 -0.536599 0.267341 7.069741 2.503695 -1.030460 0.000000 0.000000 0.000000 -11.253363 -0.766872 2.100178 3.853855 -9.066734 -15.271920 70.786134 -30.625311 -17.692357 -3.107626 -39.160586 -10.497750 0.000000 0.000000 0.000000 -5.136495 -0.155300 -0.468480 0.606583 18.160657 11.474484 77.289888 21.999433 31.486844 -21.976381 23.816530 2.534523 0.000000 0.000000 0.000000 
2.804088 15.287815 182.074310 0.000000 0.000000 0.000000 -79.938642 -1.351495 -0.453558 -63.183252 -56.168102 27.678145 111.195063 -16.796980 -16.159044 2.689489 1.518235 -7.285306 0.000000 0.000000 0.000000 -81.555266 -0.548789 0.729408 -59.312256 14.370848 -30.946081 95.134877 14.991500 -6.508387 -2.507566 11.690174 21.448350 0.000000 0.000000 0.000000 -81.770806 -0.409123 0.580300 -0.957663 -0.098290 -0.097728 13.471864 -0.874184 6.890432 -7.323488 0.453402 0.064048 0.000000 0.000000 0.000000 -9.716334 -0.742422 0.273377 7.657391 2.023974 -1.158014 0.000000 0.000000 0.000000 -11.575181 -0.937360 2.230121 4.915761 -8.492772 -15.914269 69.411244 -30.250918 -17.285735 -2.672130 -38.633544 -10.513536 0.000000 0.000000 0.000000 -5.272886 -0.438352 -0.561598 0.518786 18.427046 11.971964 75.719170 22.970947 31.688550 -21.299288 22.009110 -0.025687 0.000000 0.000000 0.000000 
3.365476 15.341099 182.307220 0.000000 0.000000 0.000000 -79.484175 -1.321857 -0.276423 -64.057148 -55.438576 28.136978 111.440704 -17.304960 -16.990067 2.682252 0.970474 -8.497306 0.000000 0.000000 0.000000 -81.173144 -0.534127 0.830539 -57.860616 12.018940 -32.611401 91.903645 15.854481 -6.349887 -3.945716 11.168462 22.995818 0.000000 0.000000 0.000000 -81.293963 -0.372052 0.742446 -0.963628 -0.085377 -0.082613 13.931081 -1.252228 7.047339 -7.462332 0.527909 -0.059380 0.000000 0.000000 0.000000 -9.852400 -0.938217 0.202214 8.216117 1.560633 -1.240117 0.000000 0.000000 0.000000 -11.829285 -1.107305 2.294462 6.070665 -7.665999 -16.654520 67.952049 -30.078480 -16.287665 -2.415504 -37.739934 -10.636303 0.000000 0.000000 0.000000 -5.410125 -0.686866 -0.725210 0.592592 18.880518 12.325438 73.465078 24.311449 32.233507 -20.569530 20.056378 -2.679864 0.000000 0.000000 0.000000 
3.874459 15.422661 182.519089 0.000000 0.000000 0.000000 -79.072294 -1.199685 0.011562 -65.085030 -54.612232 28.521386 111.661340 -17.853462 -17.859249 2.727202 0.443549 -9.249314 0.000000 0.000000 0.000000 -80.813671 -0.446809 1.024016 -56.160182 9.603892 -34.276379 88.498959 16.712119 -6.155051 -5.890042 10.566754 24.696496 0.000000 0.000000 0.000000 -80.759474 -0.310727 0.996987 -0.961900 -0.078630 -0.076278 14.432550 -1.636961 7.357534 -7.512165 0.644365 -0.242892 0.000000 0.000000 0.000000 -9.897759 -1.094605 0.074936 8.719264 1.131012 -1.259094 0.000000 0.000000 0.000000 -11.997434 -1.251288 2.311597 7.287106 -6.545177 -17.537168 66.601523 -30.220162 -14.713220 -2.360972 -36.773438 -10.858652 0.000000 0.000000 0.000000 -5.509408 -0.873425 -0.940560 0.773663 19.531763 12.693061 70.720298 25.732832 33.004048 -19.866276 18.067099 -5.262372 0.000000 0.000000 0.000000 
4.330996 15.493744 182.564575 0.000000 0.000000 0.000000 -78.705165 -1.182225 0.234198 -66.400879 -53.840534 28.425316 112.051705 -18.266275 -18.796418 3.059039 0.242074 -8.902915 0.000000 0.000000 0.000000 -80.475761 -0.426437 1.213762 -54.364580 7.278519 -35.747585 85.078236 17.325839 -6.025245 -7.757468 9.882872 26.059975 0.000000 0.000000 0.000000 -80.249259 -0.275694 1.250921 -0.956278 -0.074534 -0.078683 14.997620 -1.943345 7.776275 -7.435297 0.814318 -0.466112 0.000000 0.000000 0.000000 -9.842998 -1.184191 -0.079739 9.143363 0.747376 -1.200671 0.000000 0.000000 0.000000 -12.078356 -1.335215 2.324309 8.556076 -5.040157 -18.551122 65.452473 -30.664701 -12.665181 -2.498694 -35.927174 -11.153821 0.000000 0.000000 0.000000 -5.534413 -0.986009 -1.183679 1.023071 20.249458 13.222656 67.762102 26.855609 33.857743 -19.233878 16.279303 -7.564585 0.000000 0.000000 0.000000 
4.777787 15.507481 182.553329 0.000000 0.000000 0.000000 -78.302067 -1.359829 0.275600 -68.234744 -53.216476 27.626959 112.765515 -18.448669 -19.719714 3.563068 0.454684 -7.389327 0.000000 0.000000 0.000000 -80.077445 -0.562259 1.288425 -52.611393 5.143917 -36.864911 81.569254 17.646687 -5.951983 -9.195937 9.175702 26.834630 0.000000 0.000000 0.000000 -79.770025 -0.352720 1.383697 -0.946029 -0.070807 -0.081384 15.599425 -2.098708 8.271310 -7.229381 1.065666 -0.715071 0.000000 0.000000 0.000000 -9.696041 -1.180330 -0.244264 9.469387 0.423835 -1.070466 0.000000 0.000000 0.000000 -12.047426 -1.325734 2.352435 9.874325 -3.085828 -19.642091 64.648062 -31.402024 -10.143310 -2.819980 -35.229699 -11.503959 0.000000 0.000000 0.000000 -5.457959 -1.011088 -1.441593 1.311690 20.889999 13.924177 64.868007 27.454306 34.620750 -18.685883 14.948762 -9.429479 0.000000 0.000000 0.000000 
5.234174 15.391125 182.443542 0.000000 0.000000 0.000000 -77.797863 -1.693775 0.151930 -70.711425 -52.743875 26.187761 113.904756 -18.422364 -20.477426 4.038535 1.055763 -4.962263 0.000000 0.000000 0.000000 -79.540094 -0.861225 1.199363 -51.021899 3.257718 -37.599836 78.020520 17.780658 -5.895269 -9.927908 8.656084 27.225313 0.000000 0.000000 0.000000 -79.275608 -0.526204 1.374447 -0.939759 -0.075386 -0.083176 16.187091 -2.078731 8.805330 -6.922216 1.392526 -0.984083 0.000000 0.000000 0.000000 -9.483260 -1.079614 -0.406199 9.683009 0.173719 -0.887008 0.000000 0.000000 0.000000 -11.872961 -1.214406 2.405893 11.233634 -0.680260 -20.729460 64.186655 -32.343118 -7.186045 -3.290821 -34.485045 -11.905827 0.000000 0.000000 0.000000 -5.262788 -0.950760 -1.717589 1.648680 21.311655 14.669918 62.086208 27.532248 35.233917 -18.198279 14.170766 -10.764057 0.000000 0.000000 0.000000 
5.694366 15.098980 182.320648 0.000000 0.000000 0.000000 -77.152492 -2.066226 -0.075178 -73.469572 -52.402987 24.527604 115.307909 -18.227775 -21.005678 4.072506 1.831187 -2.179725 0.000000 0.000000 0.000000 -78.849206 -1.215955 1.035245 -49.642402 1.544571 -37.950768 74.234225 17.884289 -5.722714 -9.717886 8.462834 27.537101 0.000000 0.000000 0.000000 -78.684449 -0.730244 1.265174 -0.942842 -0.080670 -0.080714 16.739697 -1.899844 9.330241 -6.550329 1.784903 -1.265544 0.000000 0.000000 0.000000 -9.232515 -0.905791 -0.571216 9.798693 0.008653 -0.669718 0.000000 0.000000 0.000000 -11.575194 -1.019103 2.476054 12.597892 2.072150 -21.713072 63.959121 -33.419972 -3.854604 -3.873952 -33.616258 -12.325205 0.000000 0.000000 0.000000 -4.987404 -0.828680 -2.007499 2.036013 21.459293 15.355659 59.319804 27.273483 35.761286 -17.733326 13.823329 -11.584466 0.000000 0.000000 0.000000 
6.177415 14.705917 182.215302 0.000000 0.000000 0.000000 -76.338955 -2.356568 -0.296944 -75.970596 -52.154601 23.149927 116.399524 -17.893718 -21.411595 3.529049 2.433890 0.241178 0.000000 0.000000 0.000000 -78.012331 -1.487516 0.885424 -48.576838 -0.054408 -37.995376 70.173514 18.005337 -5.336876 -8.664544 8.526680 27.859280 0.000000 0.000000 0.000000 -77.949042 -0.904159 1.124477 -0.952360 -0.081768 -0.072545 17.243917 -1.607460 9.767287 -6.134906 2.216936 -1.561322 0.000000 0.000000 0.000000 -8.960944 -0.689467 -0.746058 9.845391 -0.054444 -0.437961 0.000000 0.000000 0.000000 -11.169278 -0.777253 2.547251 13.900626 4.992309 -22.517674 63.829402 -34.547790 -0.266650 -4.497463 -32.475374 -12.716912 0.000000 0.000000 0.000000 -4.646011 -0.669924 -2.303439 2.443362 21.395721 15.927211 56.405580 26.933746 36.338099 -17.291852 13.548850 -11.992981 0.000000 0.000000 0.000000 
6.650335 14.287319 182.103470 0.000000 0.000000 0.000000 -75.349841 -2.513113 -0.437835 -78.021442 -51.958103 22.298626 116.925052 -17.405586 -21.830207 2.757928 2.909271 2.160633 0.000000 0.000000 0.000000 -77.036276 -1.625241 0.787158 -47.922902 -1.658274 -37.858328 65.947819 18.093917 -4.716588 -6.948690 8.720495 28.127928 0.000000 0.000000 0.000000 -77.028360 -1.006503 1.005801 -0.966230 -0.081569 -0.066923 17.696325 -1.259519 10.060989 -5.706431 2.658097 -1.861373 0.000000 0.000000 0.000000 -8.697288 -0.468729 -0.928290 9.863717 -0.019702 -0.208197 0.000000 0.000000 0.000000 -10.696197 -0.525246 2.616601 15.073203 7.860104 -23.174707 63.615713 -35.690016 3.342815 -5.084571 -31.035430 -13.023051 0.000000 0.000000 0.000000 -4.278926 -0.503180 -2.583166 2.826779 21.246654 16.422087 53.222152 26.688778 37.078915 -16.892709 12.870580 -12.106097 0.000000 0.000000 0.000000 
